
        <svg xmlns="http://www.w3.org/2000/svg" xmlns:xlink="http://www.w3.org/1999/xlink" version="1.1" width="3156.3296281814255" 
        height="756.4800782529965" viewBox="0 -7.816481409071272 3156.3296281814255 756.4800782529965">
			
			<g transform="scale(7.816481409071272) translate(10, 10)">
				<defs id="SvgjsDefs8710"><linearGradient id="SvgjsLinearGradient8719"><stop id="SvgjsStop8720" stop-color="#b98947" offset="0"></stop><stop id="SvgjsStop8721" stop-color="#faf0a1" offset="1"></stop></linearGradient></defs><g id="SvgjsG8711" featureKey="CNhTwm-0" transform="matrix(0.9534163936618479,0,0,0.9534163936618479,28.71397512736388,53.47018473491154)" fill="#175682"><path d="M3 16.4 l-1.2 3.6 l-1.5 0 l0 -0.6 l4.9 -13.4 l1.7 0 l4.9 13.4 l0 0.6 l-1.5 0 l-1.2 -3.6 l-6.1 0 z M8.6 15.1 l-2.5 -7.3 l-0.1 0 l-2.5 7.3 l5.1 0 z M18.305 9.6 l1.8 0 c1.8 0 3 1.2 3 2.8 l0 4.8 c0 1.6 -1.2 2.8 -3 2.8 l-4.1 0 l0 3.4 l-1.4 0 l0 -13.6 l0.9 0 l0.2 1.4 l0.1 0 s0.8 -1.6 2.5 -1.6 z M20.105 10.8 l-1.8 0 c-1.5 0 -2.3 1.8 -2.3 1.8 l0 6.2 l4.1 0 c0.9 0 1.6 -0.7 1.6 -1.6 l0 -4.8 c0 -0.9 -0.7 -1.6 -1.6 -1.6 z M30.71 9.6 l1.8 0 c1.8 0 3 1.2 3 2.8 l0 4.8 c0 1.6 -1.2 2.8 -3 2.8 l-4.1 0 l0 3.4 l-1.4 0 l0 -13.6 l0.9 0 l0.2 1.4 l0.1 0 s0.8 -1.6 2.5 -1.6 z M32.51 10.8 l-1.8 0 c-1.5 0 -2.3 1.8 -2.3 1.8 l0 6.2 l4.1 0 c0.9 0 1.6 -0.7 1.6 -1.6 l0 -4.8 c0 -0.9 -0.7 -1.6 -1.6 -1.6 z M45.015 9.6 l0 1.3 l-1.9 0 c-1.5 0 -2.3 1.7 -2.3 1.7 l0 7.4 l-1.4 0 l0 -10.2 l0.9 0 l0.2 1.4 l0.1 0 s0.8 -1.6 2.5 -1.6 l1.9 0 z M48.92 12.4 l0 5 c0 0.9 0.7 1.6 1.6 1.6 l2.5 0 c0.9 0 1.6 -0.7 1.6 -1.6 l0 -5 c0 -0.9 -0.7 -1.6 -1.6 -1.6 l-2.5 0 c-0.9 0 -1.6 0.7 -1.6 1.6 z M47.52 17.4 l0 -5 c0 -1.6 1.2 -2.8 3 -2.8 l2.5 0 c1.8 0 3 1.2 3 2.8 l0 5 c0 1.6 -1.2 2.8 -3 2.8 l-2.5 0 c-1.9 0 -3 -1.2 -3 -2.8 z M67.325 20 l-0.9 0 l-0.2 -1.4 l-0.1 0 s-0.8 1.6 -2.5 1.6 l-1.6 0 c-1.9 0 -3 -1.2 -3 -2.8 l0 -0.6 c0 -1.6 1.2 -2.8 3 -2.8 l3.9 0 l0 -1.4 c0 -0.9 -0.7 -1.6 -1.6 -1.6 l-4.4 0 l0 -1.2 l4.4 0 c1.8 0 3 1.2 3 2.8 l0 7.4 z M62.025 19 l1.6 0 c1.5 0 2.3 -1.8 2.3 -1.8 l0 -2 l-3.9 0 c-0.9 0 -1.6 0.7 -1.6 1.6 l0 0.6 c0 0.9 0.7 1.6 1.6 1.6 z M78.43 11 l-4.2 0 c-0.9 0 -1.6 0.7 -1.6 1.6 l0 4.6 c0 0.9 0.7 1.6 1.6 1.6 l4.6 0 l0 1.2 l-4.6 0 c-1.9 0 -3 -1.2 -3 -2.8 l0 -4.6 c0 -1.6 1.2 -2.8 3 -2.8 l4.6 0 l0 0.8 z M81.935 6 l1.4 0 l0 3.8 l4.1 0 c1.8 0 3 1.2 3 2.8 l0 7.4 l-1.4 0 l0 -7.4 c0 -0.9 -0.7 -1.6 -1.6 -1.6 l-4.1 0 l0 9 l-1.4 0 l0 -14 z M101.94 20 l-0.9 0 l-0.2 -1.4 l-0.1 0 s-0.8 1.6 -2.5 1.6 l-1.6 0 c-1.9 0 -3 -1.2 -3 -2.8 l0 -0.6 c0 -1.6 1.2 -2.8 3 -2.8 l3.9 0 l0 -1.4 c0 -0.9 -0.7 -1.6 -1.6 -1.6 l-4.4 0 l0 -1.2 l4.4 0 c1.8 0 3 1.2 3 2.8 l0 7.4 z M96.64 19 l1.6 0 c1.5 0 2.3 -1.8 2.3 -1.8 l0 -2 l-3.9 0 c-0.9 0 -1.6 0.7 -1.6 1.6 l0 0.6 c0 0.9 0.7 1.6 1.6 1.6 z M107.445 6 l0 3.8 l4.1 0 c1.8 0 3 1.2 3 2.8 l0 4.6 c0 1.6 -1.2 2.8 -3 2.8 l-5.5 0 l0 -14 l1.4 0 z M111.545 11 l-4.1 0 l0 7.8 l4.1 0 c0.9 0 1.6 -0.7 1.6 -1.6 l0 -4.6 c0 -0.9 -0.7 -1.6 -1.6 -1.6 z M118.45 17.2 l0 -11.2 l1.4 0 l0 11.2 c0 0.9 0.7 1.6 1.6 1.6 l0.3 0 l0 1.2 l-0.3 0 c-1.8 0 -3 -1.2 -3 -2.8 z M132.255 20 l-4.8 0 c-1.9 0 -3 -1.2 -3 -2.8 l0 -4.8 c0 -1.6 1.2 -2.8 3 -2.8 l2.2 0 c1.8 0 3 1.2 3 2.8 l0 3.1 l-6.8 0 l0 1.7 c0 0.9 0.7 1.6 1.6 1.6 l4.8 0 l0 1.2 z M125.855 12.4 l0 1.9 l5.4 0 l0 -1.9 c0 -0.9 -0.7 -1.6 -1.6 -1.6 l-2.2 0 c-0.9 0 -1.6 0.7 -1.6 1.6 z M143.665 16.4 l-1.2 3.6 l-1.5 0 l0 -0.6 l4.9 -13.4 l1.7 0 l4.9 13.4 l0 0.6 l-1.5 0 l-1.2 -3.6 l-6.1 0 z M149.265 15.1 l-2.5 -7.3 l-0.1 0 l-2.5 7.3 l5.1 0 z M157.17 20 l-1.5 0 l0 -14 l1.5 0 l0 14 z M167.38 20 l0 -11.4 c0 -1.6 1.2 -2.8 3 -2.8 l2.9 0 l0 0.8 l-0.4 0.4 l-2.5 0 c-0.9 0 -1.6 0.7 -1.6 1.6 l0 2.4 l3.3 0 l0 1.2 l-3.3 0 l0 7.8 l-1.4 0 z M176.485 12.4 l0 5 c0 0.9 0.7 1.6 1.6 1.6 l2.5 0 c0.9 0 1.6 -0.7 1.6 -1.6 l0 -5 c0 -0.9 -0.7 -1.6 -1.6 -1.6 l-2.5 0 c-0.9 0 -1.6 0.7 -1.6 1.6 z M175.085 17.4 l0 -5 c0 -1.6 1.2 -2.8 3 -2.8 l2.5 0 c1.8 0 3 1.2 3 2.8 l0 5 c0 1.6 -1.2 2.8 -3 2.8 l-2.5 0 c-1.9 0 -3 -1.2 -3 -2.8 z M193.09 9.6 l0 1.3 l-1.9 0 c-1.5 0 -2.3 1.7 -2.3 1.7 l0 7.4 l-1.4 0 l0 -10.2 l0.9 0 l0.2 1.4 l0.1 0 s0.8 -1.6 2.5 -1.6 l1.9 0 z M200.6 9.9 l0 -0.6 c0 -1.9 1.4 -3.3 3.5 -3.3 l5.5 0 l0 0.9 l-0.4 0.4 l-5.1 0 c-1.1 0 -2 0.9 -2 2 l0 0.6 c0 1.1 0.6 1.68 1.6 1.9 l3.7 0.8 c1.4 0.3 2.5 1.4 2.5 3.2 l0 0.9 c0 1.9 -1.4 3.3 -3.5 3.3 l-6 0 l0 -1.3 l6 0 c1.1 0 2 -0.9 2 -2 l0 -0.9 c0 -1.1 -0.6 -1.68 -1.6 -1.9 l-3.7 -0.8 c-1.4 -0.3 -2.5 -1.4 -2.5 -3.2 z M214.705 12.6 l0 7.4 l-1.4 0 l0 -10.2 l0.9 0 l0.2 1.4 l0.1 0 s0.8 -1.6 2.5 -1.6 l1.1 0 c1.8 0 2.3 1.4 2.3 1.4 l0.1 0 s0.5 -1.4 2.2 -1.4 l1.8 0 c1.8 0 3 1.2 3 2.8 l0 7.6 l-1.4 0 l0 -7.6 c0 -0.9 -0.7 -1.6 -1.6 -1.6 l-1.8 0 c-0.9 0 -1.6 0.7 -1.6 1.6 l0 7.6 l-1.4 0 l0 -7.6 c0 -0.9 -0.7 -1.6 -1.6 -1.6 l-1.1 0 c-1.5 0 -2.3 1.8 -2.3 1.8 z M239.01 20 l-0.9 0 l-0.2 -1.4 l-0.1 0 s-0.8 1.6 -2.5 1.6 l-1.6 0 c-1.9 0 -3 -1.2 -3 -2.8 l0 -0.6 c0 -1.6 1.2 -2.8 3 -2.8 l3.9 0 l0 -1.4 c0 -0.9 -0.7 -1.6 -1.6 -1.6 l-4.4 0 l0 -1.2 l4.4 0 c1.8 0 3 1.2 3 2.8 l0 7.4 z M233.71 19 l1.6 0 c1.5 0 2.3 -1.8 2.3 -1.8 l0 -2 l-3.9 0 c-0.9 0 -1.6 0.7 -1.6 1.6 l0 0.6 c0 0.9 0.7 1.6 1.6 1.6 z M243.115 17.2 l0 -11.2 l1.4 0 l0 11.2 c0 0.9 0.7 1.6 1.6 1.6 l0.3 0 l0 1.2 l-0.3 0 c-1.8 0 -3 -1.2 -3 -2.8 z M249.32 17.2 l0 -11.2 l1.4 0 l0 11.2 c0 0.9 0.7 1.6 1.6 1.6 l0.3 0 l0 1.2 l-0.3 0 c-1.8 0 -3 -1.2 -3 -2.8 z M267.83 13.4 l-5 0 l0 5.3 l5 0 c1.1 0 2 -0.9 2 -2 l0 -1.3 c0 -1.1 -0.9 -2 -2 -2 z M268.93 12.5 l0 0.1 s2.4 0.4 2.4 2.8 l0 1.3 c0 1.9 -1.4 3.3 -3.5 3.3 l-6.5 0 l0 -14 l5.8 0 c2.1 0 3.5 1.4 3.5 3.3 l0 0.8 c0 2 -1.7 2.4 -1.7 2.4 z M267.13 7.3 l-4.3 0 l0 4.8 l4.3 0 c1.1 0 2 -0.9 2 -2 l0 -0.8 c0 -1.1 -0.9 -2 -2 -2 z M274.835 9.8 l1.4 0 l0 7.6 c0 0.9 0.7 1.6 1.6 1.6 l1.8 0 c1.5 0 2.3 -1.8 2.3 -1.8 l0 -7.4 l1.4 0 l0 10.2 l-0.9 0 l-0.2 -1.4 l-0.1 0 s-0.8 1.6 -2.5 1.6 l-1.8 0 c-1.8 0 -3 -1.2 -3 -2.8 l0 -7.6 z M288.04 12.6 c0 0.8 0.4 1.22 1.3 1.4 l2.9 0.6 c1.4 0.3 2.2 1.1 2.2 2.6 c0 1.6 -1.2 2.8 -3 2.8 l-4.9 0 l0 -1.2 l4.9 0 c0.9 0 1.6 -0.7 1.6 -1.6 c0 -0.8 -0.4 -1.22 -1.3 -1.4 l-2.9 -0.6 c-1.4 -0.28 -2.2 -1.1 -2.2 -2.6 c0 -1.62 1.2 -2.8 3 -2.8 l4.5 0 l0 0.8 l-0.4 0.4 l-4.1 0 c-0.9 0 -1.6 0.7 -1.6 1.6 z M299.045 9.8 l0 10.2 l-1.4 0 l0 -10.2 l1.4 0 z M299.045 6 l0 2.4 l-1.4 0 l0 -2.4 l1.4 0 z M311.65 20 l-1.4 0 l0 -7.6 c0 -0.9 -0.7 -1.6 -1.6 -1.6 l-1.8 0 c-1.5 0 -2.3 1.8 -2.3 1.8 l0 7.4 l-1.4 0 l0 -10.2 l0.9 0 l0.2 1.4 l0.1 0 s0.8 -1.6 2.5 -1.6 l1.8 0 c1.8 0 3 1.2 3 2.8 l0 7.6 z M323.355 20 l-4.8 0 c-1.9 0 -3 -1.2 -3 -2.8 l0 -4.8 c0 -1.6 1.2 -2.8 3 -2.8 l2.2 0 c1.8 0 3 1.2 3 2.8 l0 3.1 l-6.8 0 l0 1.7 c0 0.9 0.7 1.6 1.6 1.6 l4.8 0 l0 1.2 z M316.955 12.4 l0 1.9 l5.4 0 l0 -1.9 c0 -0.9 -0.7 -1.6 -1.6 -1.6 l-2.2 0 c-0.9 0 -1.6 0.7 -1.6 1.6 z M328.26 12.6 c0 0.8 0.4 1.22 1.3 1.4 l2.9 0.6 c1.4 0.3 2.2 1.1 2.2 2.6 c0 1.6 -1.2 2.8 -3 2.8 l-4.9 0 l0 -1.2 l4.9 0 c0.9 0 1.6 -0.7 1.6 -1.6 c0 -0.8 -0.4 -1.22 -1.3 -1.4 l-2.9 -0.6 c-1.4 -0.28 -2.2 -1.1 -2.2 -2.6 c0 -1.62 1.2 -2.8 3 -2.8 l4.5 0 l0 0.8 l-0.4 0.4 l-4.1 0 c-0.9 0 -1.6 0.7 -1.6 1.6 z M338.465 12.6 c0 0.8 0.4 1.22 1.3 1.4 l2.9 0.6 c1.4 0.3 2.2 1.1 2.2 2.6 c0 1.6 -1.2 2.8 -3 2.8 l-4.9 0 l0 -1.2 l4.9 0 c0.9 0 1.6 -0.7 1.6 -1.6 c0 -0.8 -0.4 -1.22 -1.3 -1.4 l-2.9 -0.6 c-1.4 -0.28 -2.2 -1.1 -2.2 -2.6 c0 -1.62 1.2 -2.8 3 -2.8 l4.5 0 l0 0.8 l-0.4 0.4 l-4.1 0 c-0.9 0 -1.6 0.7 -1.6 1.6 z"></path></g><g id="SvgjsG8712" featureKey="nameLeftFeature-0" transform="matrix(2.2743682310469313,0,0,2.2743682310469313,1.9116814334470014,-9.371319381768952)" fill="#175382"><path d="M6.582031 20.195313 c-3.144531 0 -5.703125 -1.513672 -6.103516 -4.394531 l3.857422 -0.878906 c0.107422 1.5625 1.083984 2.294922 2.402344 2.294922 c0.957031 0 1.542969 -0.458984 1.542969 -1.279297 c0 -1.074219 -1.376953 -1.474609 -2.978516 -2.021484 c-2.021484 -0.673828 -4.287109 -1.513672 -4.287109 -4.160156 c0 -2.675781 2.167969 -4.316406 5.263672 -4.316406 c2.519531 0 5.263672 0.996094 5.859375 3.964844 l-3.574219 0.878906 c-0.205078 -1.298828 -0.888672 -1.865234 -2.041016 -1.865234 c-1.025391 0 -1.748047 0.400391 -1.748047 1.240234 c0 0.800781 1.289063 1.123047 2.763672 1.601563 c2.060547 0.683594 4.599609 1.621094 4.599609 4.462891 c0 3.154297 -2.65625 4.472656 -5.556641 4.472656 z M33.683594 20 l-3.720703 0 l-0.9375 -10.117187 l-3.037109 10.117188 l-2.460937 0 l-3.037109 -10.166016 l-0.947266 10.166016 l-3.740234 0 l1.259766 -14.355469 l5.439453 0 l2.246094 7.333984 l2.275391 -7.333984 l5.419922 0 z M48.119141 20 l-0.927734 -2.65625 l-5.742187 0 l-0.917969 2.65625 l-3.779297 0 l5.283203 -14.355469 l4.580078 0 l5.283203 14.355469 l-3.779297 0 z M42.513672 14.277344 l3.613281 0 l-1.806641 -5.195312 z M59.302735 16.738281 l4.199219 0 l0 3.261719 l-7.919922 0 l0 -14.355469 l3.720703 0 l0 11.09375 z M71.111329 16.738281 l4.199219 0 l0 3.261719 l-7.919922 0 l0 -14.355469 l3.720703 0 l0 11.09375 z"></path></g><g id="SvgjsG8713" featureKey="inlineSymbolFeature-0" transform="matrix(-0.3926550160762635,0,0,0.3926550160762635,225.8427255827038,-1)" fill="url(#SvgjsLinearGradient8719)"><g xmlns="http://www.w3.org/2000/svg"><g><g><polygon points="91.247,57.092 91.283,57.072 91.283,29.941 49.815,0 8.717,29.602 8.717,56.738 49.791,27.157    "></polygon></g></g></g><g xmlns="http://www.w3.org/2000/svg"><g><g><polygon points="91.247,100 91.283,99.979 91.283,72.85 49.815,42.907 8.717,72.51 8.717,99.646 49.791,70.064    "></polygon></g></g></g></g><g id="SvgjsG8714" featureKey="nameRightFeature-0" transform="matrix(2.2743682310469313,0,0,2.2743682310469313,222.07105773622808,-9.371319381768952)" fill="#175382"><path d="M10.958985 20 l-3.515625 -14.355469 l3.857422 0 l2.421875 10.253906 l2.958984 -10.253906 l3.095703 0 l2.939453 10.253906 l2.441406 -10.253906 l3.857422 0 l-3.515625 14.355469 l-4.921875 0 l-2.363281 -7.480469 l-2.333984 7.480469 l-4.921875 0 z M32.865235 20 l0 -14.355469 l3.720703 0 l0 14.355469 l-3.720703 0 z M51.675781 5.644531 l3.720703 0 l0 14.355469 l-4.423828 0 l-5.478516 -9.316406 l0 9.316406 l-3.720703 0 l0 -14.355469 l4.375 0 l5.527344 9.267578 l0 -9.267578 z M65.554687 20.195313 c-3.144531 0 -5.703125 -1.513672 -6.103516 -4.394531 l3.857422 -0.878906 c0.107422 1.5625 1.083984 2.294922 2.402344 2.294922 c0.957031 0 1.542969 -0.458984 1.542969 -1.279297 c0 -1.074219 -1.376953 -1.474609 -2.978516 -2.021484 c-2.021484 -0.673828 -4.287109 -1.513672 -4.287109 -4.160156 c0 -2.675781 2.167969 -4.316406 5.263672 -4.316406 c2.519531 0 5.263672 0.996094 5.859375 3.964844 l-3.574219 0.878906 c-0.205078 -1.298828 -0.888672 -1.865234 -2.041016 -1.865234 c-1.025391 0 -1.748047 0.400391 -1.748047 1.240234 c0 0.800781 1.289063 1.123047 2.763672 1.601563 c2.060547 0.683594 4.599609 1.621094 4.599609 4.462891 c0 3.154297 -2.65625 4.472656 -5.556641 4.472656 z"></path></g>
			</g>
		</svg>
	